<?xml version="1.0" encoding="utf-8"?>
<!-- Generator: Adobe Illustrator 21.0.0, SVG Export Plug-In . SVG Version: 6.00 Build 0)  -->
<svg version="1.1" id="Capa_1" xmlns="http://www.w3.org/2000/svg" xmlns:xlink="http://www.w3.org/1999/xlink" x="0px" y="0px"
	 viewBox="0 0 612 612" style="enable-background:new 0 0 612 612;" xml:space="preserve">
<style type="text/css">
	.st0{fill:#0068E1;}
	.st1{fill:#FFFFFF;}
</style>
<path class="st0" d="M616,475.5c0,75.1-61.4,136.5-136.5,136.5h-339C65.4,612,4,550.6,4,475.5v-339C4,61.4,65.4,0,140.5,0h339
	C554.6,0,616,61.4,616,136.5V475.5z"/>
<path class="st1" d="M166.3,133h173.5c32,0,57.7,7.3,77,22s29,36.8,29,66.5c0,18-4.4,33.4-13.2,46.2c-8.8,12.8-21.4,22.8-37.8,29.8
	v1c22,4.7,38.7,15.1,50,31.2c11.3,16.2,17,36.4,17,60.8c0,14-2.5,27.1-7.5,39.2c-5,12.2-12.8,22.7-23.5,31.5s-24.3,15.8-41,21
	s-36.5,7.8-59.5,7.8H222.1c-30.8,0-55.8-25-55.8-55.8L166.3,133L166.3,133z M228.8,282.5h102c15,0,27.5-4.2,37.5-12.8
	s15-20.8,15-36.8c0-18-4.5-30.7-13.5-38s-22-11-39-11h-46.2c-30.8,0-55.8,25-55.8,55.8L228.8,282.5L228.8,282.5z M228.8,383.2
	c0,30.8,25,55.8,55.8,55.8h54.7c19,0,33.8-4.9,44.2-14.8c10.5-9.8,15.8-23.8,15.8-41.8c0-17.7-5.2-31.2-15.8-40.8
	s-25.2-14.2-44.2-14.2h-54.7C253.8,327.4,228.8,352.4,228.8,383.2L228.8,383.2z"/>
</svg>
